<svg width="311" height="106" viewBox="0 0 311 106" fill="none" xmlns="http://www.w3.org/2000/svg">
<g clip-path="url(#clip0_12_39)">
<mask id="mask0_12_39" style="mask-type:alpha" maskUnits="userSpaceOnUse" x="19" y="-9" width="290" height="123">
<path d="M195 31C195 34.3137 192.314 37 189 37C185.686 37 183 34.3137 183 31C183 27.6863 185.686 25 189 25C192.314 25 195 27.6863 195 31Z" fill="#D9D9D9"/>
<path d="M191 31C191 32.1046 190.105 33 189 33C187.895 33 187 32.1046 187 31C187 29.8954 187.895 29 189 29C190.105 29 191 29.8954 191 31Z" fill="#D9D9D9"/>
<path d="M19 -9H181V112H19V-9Z" fill="#D9D9D9"/>
<path d="M155 44H270V109H155V44Z" fill="#D9D9D9"/>
<path d="M268.5 1H304L305.5 108L267 114L268.5 1Z" fill="#D9D9D9"/>
<path d="M307.813 98.5202C307.813 99.3375 307.142 100 306.313 100C305.485 100 303.813 98.8173 303.813 98C303.813 97.1827 305.313 94 307.813 96C308.594 96.6247 307.813 97.7029 307.813 98.5202Z" fill="#D9D9D9"/>
</mask>
<g mask="url(#mask0_12_39)">
<path id="main-stroke" stroke="#ffffff" stroke-width="4" fill="none" stroke-linecap="round" stroke-linejoin="round" d="M22 102C30.1667 102 50.9 97.0001 68.5 77.0001C71.5 72.5001 76 60.5001 65 56.0001C54 51.5001 46 67.5001 45.5 73.0001C45.2284 75.9877 43 92.5001 51.5 98.5001C60 104.5 73.5 101 78.5 98.5001C85 95.2501 127 56 133 15.5C134 1 123.286 0.500013 121 8.50003C120.505 10.2334 91 84.5001 92 97.0001C93.5 104.5 99 103.5 110 97.0001C120.975 90.515 130 77.5 141.5 54.5001C131 90.0001 132 97.5001 139 100C142.833 102 152.6 103.3 161 92.5001C169.4 81.7001 178.5 62.6667 182 54.5001C177 67.3334 167.8 94.1001 171 98.5001C174.2 102.9 179 103 181 102C183.333 101.5 189.1 98.1001 193.5 92.5001C202.5 79.5001 220.6 52.8 221 50C221.5 46.5 218 45 214.5 50.5C211 56 219.5 67.5001 222 70.5001C224.5 73.5001 229.5 86.0001 228.5 92.5001C227.5 99.0001 222 101 219.5 101.5C217 102 205 102 202.5 98.5001C191.5 85.5001 222 102.5 231 102.5C239.5 102.5 245 96.5001 248.5 92.0001C252 87.5001 294.5 34.5 301 14.5C305 -2.99998 288.469 5.00002 285.5 14.5C283.5 20.9 263.333 74.3334 254 102C258.333 85.1667 272.2 52.4001 293 56.0001C310.5 61.0001 293.5 80.5001 292 91.5001C291.386 96.0001 290.4 102.3 296 101.5C301.6 100.7 306 97.5001 307.5 96.0001C317 -5.49998 333.5 -48 189 40C187.8 40 188.167 37.3333 188.5 36C186.833 35.6667 183.7 34.1 184.5 30.5C185.5 26 189 25.5 190 26C191.5 26 194 28.5 193.5 31C193 33.5 192.1 37.1 186.5 35.5"/>
</g>
</g>
<defs>
<clipPath id="clip0_12_39">
<rect width="310.738" height="105.802" fill="white"/>
</clipPath>
</defs>
</svg>
